name Walk8.mot
datacolumns 19
datarows 15
range 1.37500000 1.38900000
endheader

                time	   L_ground_force_vx	   L_ground_force_vy	   L_ground_force_vz	   L_ground_force_px	   L_ground_force_py	   L_ground_force_pz	   R_ground_force_vx	   R_ground_force_vy	   R_ground_force_vz	   R_ground_force_px	   R_ground_force_py	   R_ground_force_pz	   L_ground_torque_x	   L_ground_torque_y	   L_ground_torque_z	   R_ground_torque_x	   R_ground_torque_y	   R_ground_torque_z	
          1.37500000	         -4.60595166	        116.21149409	        -14.68853175	         -0.08775847	          0.00000000	          0.01985274	          0.00000000	         -0.00000000	         -0.00000000	         -0.00000000	          0.00000000	         -0.00000000	          0.00000000	          0.29754934	          0.00000000	          0.00000000	         -0.00000000	          0.00000000	
          1.37600000	         -5.55772896	        125.43395237	        -15.83004244	         -0.09298238	          0.00000000	          0.02106087	          0.00000000	         -0.00000000	         -0.00000000	         -0.00000000	          0.00000000	         -0.00000000	          0.00000000	          0.32038623	          0.00000000	          0.00000000	         -0.00000000	          0.00000000	
          1.37700000	         -6.57499729	        134.99537709	        -17.01225141	         -0.09830772	          0.00000000	          0.02229429	          0.00000000	         -0.00000000	         -0.00000000	         -0.00000000	          0.00000000	          0.00000000	          0.00000000	          0.34402208	          0.00000000	          0.00000000	         -0.00000000	          0.00000000	
          1.37800000	         -7.65964117	        144.88777888	        -18.23405814	         -0.10372191	          0.00000000	          0.02355025	          0.00000000	         -0.00000000	         -0.00000000	          0.00000000	          0.00000000	          0.00000000	          0.00000000	          0.36843352	          0.00000000	          0.00000000	         -0.00000000	          0.00000000	
          1.37900000	         -8.81344200	        155.10105909	        -19.49409630	         -0.10921085	          0.00000000	          0.02482566	          0.00000000	         -0.00000000	         -0.00000000	          0.00000000	          0.00000000	          0.00000000	          0.00000000	          0.39359179	          0.00000000	          0.00000000	         -0.00000000	          0.00000000	
          1.38000000	        -10.03806110	        165.62285542	        -20.79071470	         -0.11475882	          0.00000000	          0.02611707	          0.00000000	         -0.00000000	         -0.00000000	          0.00000000	          0.00000000	          0.00000000	          0.00000000	          0.41946239	          0.00000000	          0.00000000	         -0.00000000	          0.00000000	
          1.38100000	        -11.33502169	        176.43838269	        -22.12195765	         -0.12034840	          0.00000000	          0.02742061	          0.00000000	         -0.00000000	          0.00000000	          0.00000000	          0.00000000	          0.00000000	          0.00000000	          0.44600468	          0.00000000	          0.00000000	         -0.00000000	          0.00000000	
          1.38200000	        -12.70568978	        187.53026870	        -23.48554472	         -0.12596035	          0.00000000	          0.02873204	          0.00000000	         -0.00000000	          0.00000000	          0.00000000	          0.00000000	          0.00000000	          0.00000000	          0.47317145	          0.00000000	          0.00000000	         -0.00000000	          0.00000000	
          1.38300000	        -14.15125509	        198.87839757	        -24.87884816	         -0.13157385	          0.00000000	          0.03004673	          0.00000000	         -0.00000000	          0.00000000	          0.00000000	          0.00000000	          0.00000000	          0.00000000	          0.50090859	          0.00000000	          0.00000000	         -0.00000000	          0.00000000	
          1.38400000	        -15.67271483	        210.45979522	        -26.29886346	         -0.13716736	          0.00000000	          0.03135984	          0.00000000	          0.00000000	          0.00000000	          0.00000000	          0.00000000	          0.00000000	          0.00000000	          0.52915481	          0.00000000	          0.00000000	         -0.00000000	          0.00000000	
          1.38500000	        -17.27086082	        222.24858270	        -27.74217272	         -0.14272011	          0.00000000	          0.03266668	          0.00000000	          0.00000000	          0.00000000	          0.00000000	          0.00000000	          0.00000000	          0.00000000	          0.55784169	          0.00000000	          0.00000000	         -0.00000000	          0.00000000	
          1.38600000	        -18.94626624	        234.21599676	        -29.20490703	         -0.14821302	          0.00000000	          0.03396285	          0.00000000	          0.00000000	          0.00000000	          0.00000000	          0.00000000	          0.00000000	          0.00000000	          0.58689373	          0.00000000	          0.00000000	         -0.00000000	          0.00000000	
          1.38700000	        -20.69927070	        246.33049428	        -30.68271295	         -0.15362884	          0.00000000	          0.03524433	          0.00000000	          0.00000000	          0.00000000	          0.00000000	          0.00000000	          0.00000000	          0.00000000	          0.61622884	          0.00000000	          0.00000000	         -0.00000000	          0.00000000	
          1.38800000	        -22.52996464	        258.55799093	        -32.17072452	         -0.15895209	          0.00000000	          0.03650745	          0.00000000	          0.00000000	          0.00000000	          0.00000000	          0.00000000	          0.00000000	          0.00000000	          0.64575915	          0.00000000	          0.00000000	         -0.00000000	          0.00000000	
          1.38900000	        -24.43817396	        270.86228460	        -33.66354396	         -0.16416892	          0.00000000	          0.03774888	          0.00000000	          0.00000000	          0.00000000	          0.00000000	          0.00000000	          0.00000000	          0.00000000	          0.67539272	          0.00000000	          0.00000000	         -0.00000000	          0.00000000	
